<svg width="14" height="14" viewBox="0 0 14 14" fill="none" xmlns="http://www.w3.org/2000/svg">
<path d="M6.99998 0.333313C3.31998 0.333313 0.333313 3.31998 0.333313 6.99998C0.333313 10.68 3.31998 13.6666 6.99998 13.6666C10.68 13.6666 13.6666 10.68 13.6666 6.99998C13.6666 3.31998 10.68 0.333313 6.99998 0.333313ZM6.99998 2.33331C8.10665 2.33331 8.99998 3.22665 8.99998 4.33331C8.99998 5.43998 8.10665 6.33331 6.99998 6.33331C5.89331 6.33331 4.99998 5.43998 4.99998 4.33331C4.99998 3.22665 5.89331 2.33331 6.99998 2.33331ZM6.99998 11.8C5.33331 11.8 3.85998 10.9466 2.99998 9.65331C3.01998 8.32665 5.66665 7.59998 6.99998 7.59998C8.32665 7.59998 10.98 8.32665 11 9.65331C10.14 10.9466 8.66665 11.8 6.99998 11.8Z" fill="#323232"/>
</svg>
