<svg width="20" height="20" viewBox="0 0 20 20" fill="none" xmlns="http://www.w3.org/2000/svg">
<path d="M17 12.5C17 12.5 19 14.67 19 16C19 16.5304 18.7893 17.0391 18.4142 17.4142C18.0391 17.7893 17.5304 18 17 18C16.4696 18 15.9609 17.7893 15.5858 17.4142C15.2107 17.0391 15 16.5304 15 16C15 14.67 17 12.5 17 12.5ZM3 16V7C2.46957 7 1.96086 6.78929 1.58579 6.41421C1.21071 6.03914 1 5.53043 1 5C1 4.46957 1.21071 3.96086 1.58579 3.58579C1.96086 3.21071 2.46957 3 3 3V2C3 1.46957 3.21071 0.960859 3.58579 0.585786C3.96086 0.210714 4.46957 0 5 0H7C7.53043 0 8.03914 0.210714 8.41421 0.585786C8.78929 0.960859 9 1.46957 9 2V3H17C17.5304 3 18.0391 3.21071 18.4142 3.58579C18.7893 3.96086 19 4.46957 19 5V9C19.2652 9 19.5196 9.10536 19.7071 9.29289C19.8946 9.48043 20 9.73478 20 10C20 10.2652 19.8946 10.5196 19.7071 10.7071C19.5196 10.8946 19.2652 11 19 11H15C14.7348 11 14.4804 10.8946 14.2929 10.7071C14.1054 10.5196 14 10.2652 14 10C14 9.73478 14.1054 9.48043 14.2929 9.29289C14.4804 9.10536 14.7348 9 15 9V7H9V16H10C10.5304 16 11.0391 16.2107 11.4142 16.5858C11.7893 16.9609 12 17.4696 12 18V20H0V18C0 17.4696 0.210714 16.9609 0.585786 16.5858C0.960859 16.2107 1.46957 16 2 16H3Z" fill="#323232"/>
</svg>
